<svg width="15" height="23" viewBox="0 0 15 23" fill="none" xmlns="http://www.w3.org/2000/svg">
<path d="M4.99409 20.1899C5.66009 14.6924 5.57757 15.6794 5.70657 14.4734C5.78157 13.7744 5.89708 13.9769 1.46008 15.2804C0.378582 15.5984 -0.179411 14.9564 0.0515891 14.2979C0.426589 13.2329 1.45258 12.8474 3.02158 12.2729C4.46158 11.7449 5.12757 11.8214 4.80807 11.4569C4.77957 11.4239 3.45657 10.0349 1.58457 7.89591C1.07907 7.31691 1.02359 6.48291 1.78409 6.37041C2.15609 6.31491 2.49357 6.41541 2.77707 6.64191C3.41457 7.14741 4.04907 7.65441 4.65207 8.1974C5.85507 9.28041 6.40707 10.2104 6.50457 9.63141C7.00707 6.65241 7.02508 5.99241 8.19658 0.821906C8.32108 0.272906 8.64058 0.0194079 9.07258 0.00140788C10.5921 -0.0615921 9.87959 1.98441 8.88959 7.21791C8.24909 10.5989 7.82759 11.0549 8.57909 10.9349C13.7841 10.1069 11.2731 10.5884 14.2266 10.4579C14.3121 10.4549 14.4516 10.5269 14.4786 10.5989C14.6136 10.9739 13.8441 11.1419 9.64407 12.7289C8.56557 13.1369 10.1181 13.1939 11.9601 16.7339C12.1086 17.0174 12.1926 17.3264 11.9301 17.5574C11.6301 17.8229 11.3061 17.6399 11.0376 17.4524C8.53107 15.7004 7.66858 13.6169 7.41508 14.7479C5.77858 22.0409 6.03659 22.2179 5.55059 22.2224C5.14559 22.2254 5.23107 22.0919 4.99557 20.1944L4.99409 20.1899Z" fill="black"/>
</svg>
