<svg width="319" height="319" viewBox="0 0 319 319" fill="none" xmlns="http://www.w3.org/2000/svg">
<path d="M301.886 216.607C301.624 216.082 309.524 220.405 199.834 162.238L188.607 50.9792C187.724 45.0506 182.176 40.9051 176.244 41.7712L17.1783 64.4777C14.3087 64.9614 11.7456 66.5573 10.0454 68.919C8.34508 71.2807 7.64475 74.2177 8.09635 77.0925C13.3439 110.948 29.7931 210.427 29.7931 210.427L30.0451 210.553C29.8649 210.733 29.9064 209.726 30.0451 220.14L107.119 293.304L302.39 225.061L301.886 216.609V216.607Z" fill="white"/>
<path d="M192.392 158.581L36.6055 202.605C36.6055 202.605 22.0878 112.897 16.8003 81.128C15.6998 74.5135 21.4418 68.5132 26.0083 68.5132C56.157 64.2242 139.429 52.3574 169.812 47.952C176.619 46.9647 182.175 52.6333 182.175 57.7916L192.392 158.581Z" fill="#7A38FC"/>
<path d="M230.489 187.342C230.741 189.74 226.074 192.261 220.145 192.767C214.217 193.273 209.17 191.757 208.918 189.362C208.666 186.966 213.333 184.443 219.262 183.937C225.19 183.431 230.237 184.947 230.489 187.342Z" fill="#FB714C"/>
<path d="M202.61 195.668C202.862 198.065 198.195 200.587 192.266 201.093C186.338 201.597 181.291 200.083 181.039 197.687C180.787 195.292 185.454 192.768 191.383 192.263C197.311 191.759 202.358 193.272 202.61 195.668Z" fill="#FB714C"/>
<path d="M199.708 176.493C199.96 178.89 195.293 181.412 189.365 181.918C183.436 182.423 178.389 180.908 178.137 178.512C177.885 176.117 182.552 173.593 188.481 173.088C194.41 172.582 199.456 174.097 199.708 176.493Z" fill="#FB714C"/>
<path d="M174.733 203.993C174.985 206.39 170.318 208.912 164.389 209.417C158.46 209.923 153.414 208.407 153.16 206.012C152.91 203.614 157.577 201.093 163.505 200.587C169.434 200.082 174.481 201.597 174.733 203.993Z" fill="#FB714C"/>
<path d="M171.831 184.945C172.077 187.342 167.416 189.864 161.487 190.37C155.559 190.875 150.512 189.36 150.259 186.964C150.008 184.567 154.675 182.045 160.604 181.54C166.532 181.034 171.571 182.423 171.831 184.945Z" fill="#FB714C"/>
<path d="M146.855 212.318C147.107 214.716 142.44 217.237 136.512 217.743C130.583 218.248 125.536 216.733 125.283 214.337C125.032 211.942 129.699 209.419 135.628 208.913C141.557 208.409 146.602 209.923 146.855 212.318Z" fill="#FB714C"/>
<path d="M143.828 193.271C144.08 195.668 139.413 198.19 133.484 198.696C127.555 199.201 122.509 197.686 122.255 195.29C122.005 192.895 126.677 190.427 132.6 189.866C138.661 189.291 143.702 190.749 143.828 193.271Z" fill="#FB714C"/>
<path d="M118.978 220.77C119.223 223.167 114.563 225.689 108.634 226.195C102.706 226.7 97.659 225.185 97.4054 222.789C97.155 220.394 101.822 217.87 107.751 217.365C113.679 216.859 118.718 218.248 118.978 220.77Z" fill="#FB714C"/>
<path d="M115.95 201.597C116.14 203.999 111.535 206.516 105.607 207.021C99.678 207.527 94.6314 206.012 94.3778 203.616C94.1274 201.22 98.7943 198.697 104.723 198.191C110.652 197.687 115.76 199.204 115.95 201.597Z" fill="#FB714C"/>
<path d="M91.0986 229.096C91.3506 231.494 86.6836 234.015 80.755 234.521C74.8264 235.026 69.7798 233.511 69.5262 231.116C69.2758 228.72 73.9428 226.197 79.8714 225.691C85.8 225.185 90.845 226.701 91.0986 229.096Z" fill="#FB714C"/>
<path d="M88.0715 209.921C88.3235 212.318 83.6565 214.84 77.7279 215.346C71.7993 215.851 66.7527 214.336 66.4991 211.94C66.2487 209.545 70.9157 207.021 76.8443 206.516C82.7729 206.01 87.8179 207.526 88.0715 209.921Z" fill="#FB714C"/>
<path d="M35.5655 202.608L15.7509 80.876C14.9374 74.4115 19.3348 68.5371 25.7675 67.5977L170.192 47.0285C176.654 46.4894 182.296 51.1229 182.969 57.5842C182.969 57.5842 192.783 155.283 192.839 157.857C192.855 158.583 192.895 159.074 192.357 159.222L36.5704 203.246C36.4623 203.277 36.3489 203.284 36.2377 203.268C36.1265 203.252 36.0199 203.212 35.9251 203.152C35.8302 203.092 35.7491 203.012 35.6871 202.919C35.6252 202.825 35.5837 202.719 35.5655 202.608ZM170.259 48.6203L25.9955 69.1767C20.4322 69.9886 16.6281 75.0846 17.3395 80.7771L36.9963 201.468L191.32 157.857C190.861 151.547 181.384 57.7469 181.384 57.7469C180.805 52.1947 175.959 48.1514 170.26 48.6187L170.259 48.6203Z" fill="black"/>
<path d="M303.061 225.278L302.683 216.573C302.674 216.23 302.745 215.781 302.259 215.525L200.457 161.666C200.043 157.318 190.788 65.3777 189.402 51.4023C188.792 45.555 184.438 40.7413 176.005 40.8577C144.183 45.5438 50.7498 58.9865 17.3138 63.6886C10.9816 64.6312 6.49331 70.5774 7.30038 76.8409L29.1232 210.856L29.2492 220.276C29.2556 220.81 29.0466 220.52 106.572 294.133C106.962 294.504 107.369 294.314 107.889 294.182L302.53 226.064C302.692 226.008 302.831 225.9 302.927 225.759C303.023 225.617 303.07 225.448 303.063 225.276L303.061 225.278ZM299.851 216.056L108.323 283.309L31.4487 210.789C31.4487 210.789 199.9 163.228 199.948 163.204L299.851 216.057V216.056ZM8.88741 76.7388C8.18401 71.2281 12.0694 66.0826 17.5419 65.2676C50.9731 60.5655 144.411 47.1229 176.12 42.4432C183.514 42.4033 187.28 46.4291 187.815 51.5634C189.199 65.5356 198.472 157.637 198.873 161.864L30.4359 209.416L8.88741 76.7388ZM30.8378 219.919L30.7373 212.307L107.339 284.572L106.889 292.235L30.8394 219.919H30.8378ZM108.482 292.287L108.924 284.786L301.119 217.297L301.444 224.755L108.484 292.287H108.482Z" fill="black"/>
<path d="M120.932 246.005C117.804 246.005 116.419 244.129 114.555 242.576C112.703 240.732 113.556 238.094 115.571 237.422C125.493 234.162 217.903 203.082 223.93 201.091C225.342 200.525 227.124 200.748 228.534 201.689C228.069 202.385 227.829 202.744 228.534 201.689C229.676 202.452 231.2 203.468 232.596 204.482C234.724 205.899 234.143 209.039 231.875 209.794C213.682 215.816 138.719 240.553 122.755 245.746C122.162 245.916 121.548 246.003 120.932 246.003V246.005ZM225.588 202.385C224.544 202.385 135.642 232.505 116.072 238.936C115.14 239.245 114.725 240.494 115.63 241.399C116.281 241.933 116.995 242.636 117.721 243.242C118.981 244.292 120.732 244.668 122.289 244.223C138.223 239.04 213.182 214.304 231.373 208.283C232.363 207.951 232.76 206.511 231.685 205.793C230.282 204.773 228.778 203.771 227.65 203.018C227.039 202.611 226.323 202.392 225.589 202.386L225.588 202.385Z" fill="black"/>
<path d="M183.372 251.456C179.615 249.054 171.901 244.228 166.977 240.988C165.157 239.776 165.39 236.888 167.641 236.044C179.797 231.946 191.958 227.864 204.125 223.799C205.409 223.475 206.766 223.649 207.806 224.244C207.806 224.244 219.23 231.15 223.826 233.832C225.654 235.045 225.525 237.846 223.325 238.672L186.604 251.796C185.634 252.289 184.32 252.088 183.372 251.456ZM204.57 225.329C198.574 227.33 177.131 234.519 168.175 237.546C167.191 237.916 167.11 239.16 167.858 239.66C172.861 242.952 180.723 247.869 184.245 250.121C184.793 250.487 185.503 250.571 185.982 250.332L222.778 237.175C223.739 236.814 223.678 235.647 222.983 235.183C218.3 232.453 210.798 227.871 207.004 225.621C206.332 225.239 205.43 225.112 204.571 225.325L204.57 225.329Z" fill="black"/>
<path d="M245.846 240.548C244.705 240.205 228.667 245.156 223.12 246.389C222.259 246.581 221.375 246.688 220.394 246.928C220.394 246.928 183.598 251.52 179.805 251.959C172.359 252.822 154.258 252.128 151.894 254.136C151.771 254.166 151.801 254.289 151.678 254.32C149.892 257.097 153.141 277.469 155.79 287.992C156.684 291.536 156.827 296.649 159.937 298.533C163.877 300.294 170.399 299.356 174.621 299.083C189.869 298.099 198.713 296.29 226.572 291.652L226.511 291.407C229.396 290.8 252.2 285.987 254.444 284.028C256.06 282.618 247.09 240.922 245.846 240.548Z" fill="#FF9500"/>
<path d="M247.372 280.042C247.22 280.08 247.076 280.147 246.95 280.24C246.824 280.333 246.717 280.45 246.636 280.584C246.556 280.718 246.502 280.867 246.479 281.022C246.456 281.177 246.464 281.335 246.502 281.487C246.66 282.129 247.316 282.519 247.957 282.361C248.265 282.286 248.53 282.091 248.695 281.819C248.859 281.548 248.909 281.223 248.834 280.915C248.78 280.696 248.372 279.797 247.372 280.042Z" fill="white"/>
<path d="M163.059 293.212C162.907 293.249 162.763 293.317 162.637 293.409C162.511 293.502 162.404 293.619 162.323 293.754C162.243 293.888 162.189 294.037 162.166 294.192C162.143 294.347 162.151 294.505 162.189 294.657C162.347 295.298 163.003 295.689 163.644 295.531C163.952 295.455 164.217 295.26 164.382 294.989C164.546 294.718 164.596 294.393 164.521 294.085C164.467 293.866 164.059 292.967 163.059 293.212Z" fill="white"/>
<path d="M156.36 256.409C156.207 256.446 156.064 256.513 155.938 256.606C155.812 256.699 155.705 256.816 155.624 256.951C155.543 257.085 155.49 257.234 155.467 257.389C155.444 257.544 155.452 257.702 155.49 257.854C155.65 258.495 156.304 258.886 156.945 258.728C157.253 258.652 157.518 258.457 157.683 258.186C157.847 257.915 157.897 257.59 157.822 257.281C157.768 257.063 157.36 256.163 156.36 256.409Z" fill="white"/>
<path d="M201.683 249.46C198.143 249.912 194.594 250.302 191.04 250.629L197.181 281.983C197.755 285.135 197.93 287.154 198.495 289.454C199.388 293.089 199.071 295.501 199.232 296.158C198.715 297.01 193.294 304.242 193.294 304.242C196.814 303.766 200.183 303.2 203.703 302.725C203.703 302.725 206.69 297.965 208.044 296.074C208.328 295.605 209.467 294.645 209.676 293.724C209.445 285.92 202.553 253.701 201.683 249.461V249.46Z" fill="white"/>
<path d="M208.953 289.003C207.932 289.148 207.664 287.604 208.728 287.424C216.024 286.387 221.923 285.183 227.299 283.64C240.343 280.098 244.871 276.495 241.853 262.55C238.108 243.416 230.276 252.626 203.761 256.246C203.658 256.26 203.552 256.254 203.451 256.227C203.35 256.201 203.255 256.154 203.171 256.091C203.088 256.028 203.018 255.949 202.965 255.858C202.913 255.768 202.878 255.668 202.864 255.564C202.85 255.461 202.856 255.355 202.883 255.254C202.91 255.153 202.956 255.058 203.019 254.975C203.082 254.891 203.162 254.821 203.252 254.768C203.342 254.716 203.442 254.681 203.546 254.667C229.208 251.152 239.333 241.362 243.416 262.229C244.325 266.43 245.226 272.555 242.521 277.018C239.387 282.012 232.994 283.747 227.858 285.141C221.643 286.929 215.33 288.098 208.953 289.004V289.003Z" fill="white"/>
<path d="M198.319 290.319C197.676 290.477 180.771 291.399 170.947 290.901C170.947 290.901 165.856 290.994 164.052 289.097C160.055 284.845 160.379 281.497 159.819 278.106C159.129 273.707 158.827 269.256 158.915 264.804C159.589 258.886 166.359 258.687 173.525 258.478C177.466 258.363 178.289 258.507 192.308 256.516C193.338 256.369 193.59 257.926 192.533 258.095C178.513 260.087 177.624 259.953 173.573 260.073C166.836 260.271 161.017 260.44 160.507 264.909C160.427 269.241 160.724 273.572 161.395 277.852C161.963 281.277 161.553 284.108 165.213 288.003C166.277 289.123 170.04 289.347 170.955 289.308C179.929 289.759 194.611 289.041 198.062 288.751C199.035 288.668 199.268 290.086 198.321 290.319H198.319Z" fill="white"/>
<path d="M207.896 282.381C207.793 282.402 207.687 282.402 207.584 282.382C207.482 282.362 207.384 282.322 207.296 282.265C207.209 282.207 207.134 282.132 207.075 282.045C207.016 281.959 206.976 281.861 206.955 281.759C206.867 281.328 207.148 280.883 207.577 280.817C210.735 280.176 213.552 279.061 215.944 277.508C220.841 274.35 225.112 270.42 223.208 264.885C221.783 260.524 217.786 260.244 214.261 259.996C210.449 259.816 206.843 260.012 203.559 260.583C202.527 260.762 202.24 259.204 203.286 259.011C206.683 258.42 210.408 258.216 214.354 258.403C217.998 258.658 222.965 259.007 224.72 264.376C226.889 270.68 222.394 275.246 216.81 278.846C214.145 280.577 211.11 281.725 207.894 282.379L207.896 282.381Z" fill="white"/>
<path d="M197.371 282.759C196.746 282.912 193.6 282.188 192.573 281.87C187.021 280.514 180.73 276.664 182.033 271.097C183.054 266.734 188.557 263.269 192.764 261.727C192.963 261.656 193.182 261.665 193.373 261.754C193.565 261.843 193.714 262.003 193.788 262.201C193.861 262.399 193.852 262.618 193.763 262.81C193.674 263.002 193.513 263.151 193.315 263.225C189.648 264.569 184.474 267.676 183.587 271.46C182.255 277.152 191.405 280.554 197.267 281.189C198.151 281.285 198.234 282.545 197.371 282.757V282.759Z" fill="white"/>
<path d="M246.188 239.638C244.645 239.129 229.16 244.243 223.064 245.452C209.748 248 181.578 251.34 168.372 251.669C160.893 251.854 155.685 252.04 153.09 252.787C150.112 253.642 147.833 255.253 145.646 257.446C143.494 259.602 143.713 264.793 143.81 267.561C144.185 278.269 146.825 285.534 148.592 295.117C149.842 301.886 151.099 305.176 160.336 306.719C165.432 307.569 171.078 307.141 175.616 306.797C194.809 305.069 227.592 299.543 237.071 297.216C243.115 295.732 249.16 292.794 254.969 284.645C255.105 284.567 255.234 284.477 255.353 284.376C256.907 282.802 251.5 258.492 250.401 253.635C247.326 240.048 246.734 239.834 246.19 239.638H246.188ZM160.456 297.723C160.218 297.637 159.999 297.436 159.634 297.031C157.789 294.984 157.377 290.046 156.809 287.732C154.018 276.91 151.318 257.682 152.58 254.741C155.46 252.916 173.074 253.562 180.133 252.691C183.877 252.302 187.307 251.935 190.459 251.588C190.478 251.747 198.027 286.658 198.391 295.487C191.234 296.544 182.904 297.677 174.819 298.227C170.673 298.476 164.256 299.417 160.456 297.721V297.723ZM208.66 293.823C208.54 294.27 207.422 295.208 207.151 295.669C205.741 297.64 203.527 300.111 202.808 301.296C202.667 301.525 202.312 301.868 202.179 301.889C199.83 302.256 197.437 302.612 194.994 302.954C196.059 301.572 197.276 300.123 198.13 298.803C198.538 298.356 200.005 296.635 200 296.029C199.935 289.285 193.035 254.966 192.059 251.414C194.98 251.089 197.899 250.752 200.817 250.401C201.828 253.608 202.517 258.928 202.796 260.063C206.116 275.248 207.767 287.18 208.097 288.528C208.515 290.23 208.604 292.005 208.66 293.825V293.823ZM254.114 283.336C251.165 285.706 217.737 292.191 210.267 293.6C210.468 289.788 203.372 253.9 202.417 250.205C222.815 247.694 226.878 246.239 235.035 243.932C239.209 242.751 244.345 241.297 245.503 241.158C247.342 244.941 254.556 280.207 254.114 283.338V283.336Z" fill="black"/>
<path d="M241.802 245.765C241.65 245.803 241.507 245.87 241.381 245.963C241.254 246.056 241.148 246.173 241.067 246.307C240.986 246.441 240.933 246.59 240.91 246.745C240.887 246.9 240.895 247.058 240.933 247.21C241.091 247.852 241.747 248.242 242.388 248.085C242.696 248.009 242.961 247.814 243.125 247.543C243.29 247.271 243.34 246.946 243.265 246.638C243.211 246.419 242.802 245.52 241.802 245.765Z" fill="white"/>
<path d="M153.945 301.281C154.553 300.729 156.618 299.46 157.063 298.601C157.111 298.508 157.177 298.426 157.258 298.358C157.338 298.291 157.43 298.24 157.53 298.208C157.63 298.176 157.735 298.165 157.839 298.174C157.944 298.183 158.045 298.212 158.138 298.26C158.231 298.308 158.314 298.374 158.381 298.454C158.449 298.535 158.5 298.627 158.532 298.727C158.563 298.827 158.575 298.932 158.566 299.036C158.557 299.141 158.528 299.242 158.48 299.335C157.811 300.627 155.558 301.956 154.977 302.49C154.339 303.358 152.798 302.324 153.945 301.283V301.281Z" fill="white"/>
<path d="M152.806 294.351C152.676 294.383 152.54 294.381 152.411 294.347C152.282 294.313 152.163 294.246 152.067 294.154C151.97 294.062 151.897 293.947 151.857 293.82C151.816 293.692 151.808 293.557 151.833 293.426C151.594 291.528 151.332 292.427 148.957 278.308C148.926 278.101 148.977 277.89 149.099 277.721C149.222 277.551 149.407 277.437 149.613 277.402C149.82 277.367 150.031 277.415 150.203 277.535C150.374 277.655 150.492 277.838 150.53 278.043C152.236 288.173 152.141 286.87 152.68 289.708C153.265 292.78 153.972 294.065 152.807 294.351H152.806Z" fill="white"/>
<path d="M149.128 274.082C148.923 274.132 148.706 274.099 148.525 273.99C148.344 273.88 148.214 273.703 148.163 273.498C147.994 272.809 147.964 272.117 147.935 271.445C147.664 269.93 147.496 268.116 147.203 266.402C147.024 265.355 148.598 265.097 148.775 266.132C149.079 267.89 149.224 269.55 149.519 271.276C149.557 271.997 149.583 272.582 149.713 273.118C149.764 273.324 149.731 273.541 149.621 273.722C149.512 273.903 149.335 274.033 149.13 274.083V274.082H149.128Z" fill="white"/>
<path d="M233.118 294.504C228.457 295.648 219.354 296.836 214.546 297.501C213.514 297.645 213.266 296.078 214.324 295.92C220.648 294.983 226.975 294.244 232.752 292.95C232.958 292.902 233.175 292.937 233.355 293.049C233.535 293.16 233.663 293.339 233.712 293.545C233.76 293.751 233.725 293.967 233.613 294.147C233.502 294.327 233.324 294.456 233.118 294.504Z" fill="white"/>
<path d="M191.085 301.058C190.927 301.096 178.596 302.753 172.678 302.962C172.572 302.969 172.465 302.954 172.365 302.919C172.264 302.884 172.172 302.829 172.093 302.757C172.014 302.685 171.95 302.599 171.905 302.502C171.86 302.405 171.835 302.301 171.831 302.194C171.828 302.088 171.845 301.981 171.883 301.882C171.921 301.782 171.979 301.691 172.053 301.614C172.126 301.537 172.215 301.476 172.313 301.434C172.411 301.392 172.516 301.37 172.623 301.369C178.767 301.15 184.858 300.185 190.801 299.491C191.787 299.377 192.048 300.822 191.085 301.058Z" fill="white"/>
<path d="M310.464 224.302C309.438 223.697 292.681 224.68 287.002 224.554C286.119 224.535 285.236 224.428 284.226 224.428C284.226 224.428 247.396 220.112 243.608 219.635C236.172 218.699 218.758 213.706 215.983 215.094C215.857 215.094 215.857 215.22 215.731 215.22C213.333 217.491 211.631 238.051 211.694 248.9C211.714 252.554 210.634 257.554 213.207 260.127C216.613 262.776 223.17 263.421 227.336 264.164C242.378 266.845 251.4 267.198 279.559 269.337V269.085C282.505 269.183 305.8 269.948 308.446 268.581C310.352 267.596 311.584 224.964 310.464 224.303V224.302Z" fill="#FF9500"/>
<path d="M302.527 263.02C302.37 263.02 302.215 263.051 302.07 263.112C301.925 263.172 301.794 263.26 301.684 263.371C301.573 263.482 301.486 263.614 301.427 263.759C301.367 263.904 301.337 264.06 301.338 264.217C301.338 264.877 301.882 265.413 302.543 265.413C302.86 265.413 303.164 265.287 303.388 265.062C303.613 264.838 303.739 264.534 303.739 264.217C303.739 263.992 303.557 263.02 302.527 263.02Z" fill="white"/>
<path d="M217.506 255.704C217.349 255.704 217.194 255.735 217.049 255.796C216.904 255.856 216.773 255.944 216.663 256.055C216.552 256.166 216.465 256.298 216.406 256.443C216.346 256.589 216.316 256.744 216.317 256.901C216.317 257.561 216.861 258.097 217.522 258.097C217.839 258.097 218.143 257.971 218.368 257.746C218.592 257.522 218.718 257.218 218.718 256.901C218.718 256.676 218.536 255.704 217.506 255.704Z" fill="white"/>
<path d="M219.777 218.365C219.62 218.365 219.465 218.396 219.32 218.457C219.175 218.517 219.044 218.605 218.934 218.716C218.823 218.827 218.736 218.959 218.677 219.104C218.617 219.25 218.587 219.405 218.588 219.562C218.588 220.222 219.132 220.758 219.793 220.758C220.11 220.758 220.414 220.632 220.638 220.407C220.863 220.183 220.989 219.879 220.989 219.562C220.989 219.337 220.807 218.365 219.777 218.365Z" fill="white"/>
<path d="M265.45 222.426C261.904 222.021 258.365 221.554 254.835 221.024C254.835 221.024 253.333 252.765 253.321 252.939C253.127 256.137 252.817 258.14 252.817 260.507C252.817 264.249 251.934 266.515 251.934 267.193C251.229 267.898 244.24 273.626 244.24 273.626C247.771 274.004 251.178 274.256 254.709 274.635C254.709 274.635 258.746 270.725 260.512 269.211C260.899 268.823 262.234 268.163 262.655 267.319C264.292 259.686 265.282 226.752 265.45 222.426Z" fill="white"/>
<path d="M263.081 262.561C262.056 262.459 262.163 260.896 263.241 260.974C270.573 261.708 276.589 261.944 282.178 261.728C295.689 261.398 300.947 258.979 301.344 244.716C302.27 225.243 292.468 232.318 265.853 229.511C265.747 229.503 265.643 229.474 265.548 229.425C265.453 229.376 265.369 229.309 265.3 229.227C265.232 229.145 265.181 229.05 265.15 228.948C265.119 228.845 265.108 228.738 265.12 228.632C265.131 228.526 265.163 228.423 265.215 228.329C265.267 228.236 265.337 228.154 265.421 228.088C265.505 228.022 265.601 227.974 265.704 227.946C265.807 227.918 265.915 227.911 266.021 227.925C291.78 230.631 303.948 223.538 302.937 244.777C302.817 249.074 302.232 255.237 298.541 258.926C294.307 263.028 287.686 263.189 282.365 263.319C275.903 263.574 269.493 263.202 263.083 262.561H263.081Z" fill="white"/>
<path d="M252.439 261.303C251.777 261.303 235.14 258.167 225.718 255.341C225.718 255.341 220.751 254.216 219.453 251.945C216.585 246.862 217.699 243.689 217.963 240.26C218.344 235.813 219.096 231.519 220.258 227.125C222.324 221.539 228.945 222.961 235.955 224.466C239.81 225.294 240.574 225.631 254.663 227.039C255.698 227.143 255.572 228.715 254.503 228.626C240.413 227.218 239.582 226.876 235.618 226.025C229.029 224.61 223.338 223.387 221.775 227.605C220.664 231.793 219.92 236.07 219.552 240.388C219.286 243.849 218.214 246.501 220.839 251.155C221.605 252.495 225.205 253.613 226.104 253.792C234.711 256.37 249.141 259.175 252.562 259.716C253.527 259.867 253.415 261.301 252.439 261.301V261.303Z" fill="white"/>
<path d="M263.633 255.878C263.529 255.874 263.426 255.849 263.331 255.805C263.235 255.761 263.15 255.699 263.079 255.622C263.008 255.545 262.952 255.455 262.916 255.356C262.88 255.258 262.864 255.153 262.868 255.049C262.885 254.608 263.263 254.245 263.697 254.285C266.918 254.415 269.918 254.004 272.612 253.066C278.121 251.166 283.206 248.369 282.676 242.539C282.333 237.965 278.518 236.738 275.153 235.658C271.494 234.574 267.943 233.905 264.619 233.676C263.574 233.604 263.667 232.022 264.729 232.084C268.17 232.322 271.835 233.012 275.623 234.133C279.102 235.252 283.842 236.773 284.265 242.407C284.868 249.045 279.414 252.409 273.133 254.573C270.131 255.618 266.911 256.009 263.633 255.878Z" fill="white"/>
<path d="M253.322 253.734C252.677 253.734 249.795 252.281 248.875 251.728C243.806 249.086 238.616 243.847 241.208 238.752C243.24 234.759 249.411 232.706 253.864 232.211C254.074 232.188 254.285 232.249 254.45 232.381C254.615 232.514 254.721 232.706 254.744 232.916C254.768 233.127 254.706 233.337 254.574 233.503C254.442 233.668 254.25 233.773 254.039 233.797C250.157 234.229 244.391 236.012 242.629 239.475C239.978 244.686 248.053 250.171 253.594 252.185C254.43 252.489 254.21 253.733 253.322 253.733V253.734Z" fill="white"/>
<path d="M311.013 223.499C309.635 222.636 293.379 223.911 287.169 223.632C273.629 222.932 245.476 219.458 232.572 216.627C225.264 215.022 220.163 213.963 217.465 214.067C214.37 214.186 211.772 215.209 209.124 216.816C206.52 218.399 205.496 223.49 204.929 226.201C202.739 236.688 203.57 244.375 203.003 254.103C202.602 260.974 203.038 264.47 211.641 268.171C216.388 270.212 221.972 271.142 226.462 271.89C245.513 274.79 278.668 277.24 288.429 277.24C294.653 277.24 301.223 275.828 308.809 269.301C308.959 269.257 309.105 269.201 309.246 269.132C311.129 267.973 311.676 243.076 311.767 238.097C312.021 224.168 311.498 223.82 311.016 223.499H311.013ZM213.901 259.463C213.691 259.323 213.526 259.076 213.268 258.596C211.965 256.168 212.742 251.275 212.742 248.892C212.613 237.717 214.574 218.399 216.501 215.845C219.734 214.76 236.684 219.588 243.749 220.426C247.478 220.941 250.896 221.404 254.041 221.817C254.022 221.976 253.027 257.682 251.275 266.341C244.072 265.662 235.713 264.775 227.728 263.381C223.644 262.633 217.187 262.017 213.9 259.465L213.901 259.463ZM261.646 267.172C261.423 267.577 260.115 268.222 259.74 268.604C257.901 270.182 255.161 272.054 254.18 273.034C253.988 273.224 253.561 273.471 253.429 273.46C251.016 273.252 248.606 273.026 246.197 272.78C247.561 271.692 249.089 270.576 250.232 269.496C250.735 269.159 252.57 267.839 252.711 267.249C254.255 260.684 255.74 225.71 255.638 222.026C258.837 222.444 261.74 222.81 264.385 223.131C264.602 226.487 264.002 231.817 264.002 232.986C263.603 248.525 262.362 260.507 262.362 261.894C262.362 263.647 262.026 265.392 261.646 267.174V267.172ZM308.29 267.828C304.861 269.426 270.851 267.753 263.26 267.34C264.364 263.684 266.032 227.141 265.984 223.324C286.392 225.75 290.686 225.307 299.157 225.01C303.492 224.858 308.826 224.672 309.986 224.812C310.869 228.926 309.466 264.893 308.29 267.828Z" fill="black"/>
<path d="M305.293 228.404C305.137 228.404 304.981 228.435 304.837 228.495C304.692 228.555 304.561 228.644 304.45 228.755C304.34 228.866 304.252 228.998 304.193 229.143C304.134 229.288 304.104 229.444 304.105 229.6C304.105 230.261 304.649 230.797 305.309 230.797C305.627 230.797 305.931 230.67 306.155 230.446C306.379 230.222 306.505 229.918 306.505 229.6C306.505 229.375 306.324 228.404 305.293 228.404Z" fill="white"/>
<path d="M206.73 261.366C207.451 260.976 209.76 260.234 210.397 259.507C210.536 259.347 210.733 259.25 210.944 259.236C211.155 259.222 211.363 259.292 211.523 259.432C211.682 259.571 211.779 259.768 211.793 259.979C211.807 260.19 211.737 260.399 211.598 260.558C210.641 261.654 208.135 262.406 207.444 262.786C206.616 263.477 205.368 262.105 206.73 261.366Z" fill="white"/>
<path d="M207.279 254.365C207.145 254.365 207.013 254.331 206.896 254.267C206.779 254.202 206.679 254.11 206.607 253.997C206.535 253.885 206.493 253.756 206.483 253.622C206.474 253.489 206.499 253.355 206.554 253.234C206.775 251.332 206.307 252.144 207.366 237.866C207.374 237.761 207.403 237.659 207.45 237.566C207.497 237.472 207.562 237.389 207.642 237.321C207.721 237.252 207.813 237.2 207.913 237.168C208.012 237.135 208.117 237.122 208.222 237.13C208.327 237.138 208.428 237.166 208.522 237.213C208.616 237.261 208.699 237.326 208.767 237.405C208.836 237.485 208.888 237.577 208.92 237.676C208.953 237.776 208.966 237.881 208.958 237.986C208.197 248.23 208.417 246.941 208.266 249.825C208.102 252.948 208.481 254.365 207.28 254.365H207.279Z" fill="white"/>
<path d="M208.54 233.803C208.328 233.803 208.126 233.719 207.976 233.57C207.826 233.42 207.742 233.217 207.742 233.006C207.742 232.296 207.878 231.617 208.01 230.958C208.108 229.42 208.377 227.619 208.502 225.884C208.578 224.825 210.167 224.949 210.093 225.997C209.966 227.776 209.714 229.423 209.589 231.17C209.454 231.878 209.339 232.454 209.339 233.004C209.339 233.216 209.255 233.419 209.105 233.568C208.956 233.718 208.753 233.802 208.542 233.802L208.54 233.803Z" fill="white"/>
<path d="M285.236 273.665C280.437 273.665 271.313 272.648 266.485 272.147C265.449 272.04 265.583 270.459 266.648 270.56C273.014 271.158 279.335 271.949 285.252 272.07C285.357 272.071 285.46 272.093 285.557 272.134C285.653 272.175 285.74 272.235 285.814 272.31C285.887 272.384 285.945 272.473 285.984 272.57C286.023 272.667 286.043 272.771 286.042 272.876C286.041 272.981 286.019 273.084 285.978 273.18C285.937 273.277 285.877 273.364 285.802 273.437C285.728 273.511 285.639 273.569 285.542 273.608C285.445 273.647 285.341 273.666 285.236 273.665Z" fill="white"/>
<path d="M242.852 270.008C242.689 270.008 230.32 268.676 224.524 267.467C224.421 267.446 224.324 267.404 224.238 267.345C224.151 267.286 224.077 267.211 224.02 267.123C223.963 267.036 223.924 266.938 223.904 266.835C223.885 266.732 223.886 266.626 223.907 266.524C223.929 266.421 223.97 266.324 224.029 266.238C224.088 266.151 224.164 266.077 224.251 266.02C224.339 265.963 224.437 265.924 224.54 265.904C224.643 265.885 224.748 265.886 224.851 265.907C230.87 267.161 237.014 267.676 242.952 268.419C243.937 268.542 243.847 270.008 242.855 270.008H242.852Z" fill="white"/>
<path d="M168.382 11.9305L49.68 33.1233L51.4457 43.7189L17.134 49.6475L42.9938 199.885L188.943 159.393L168.382 11.9305Z" fill="white"/>
<path d="M169.825 66.2726L162.508 53.9113C162.269 53.5078 161.126 53.1664 160.7 53.6864L152.248 64.03C152.114 64.1939 152.051 64.4043 152.072 64.6149C152.093 64.8255 152.197 65.019 152.361 65.1529C152.525 65.2868 152.735 65.35 152.946 65.3288C153.156 65.3076 153.35 65.2035 153.484 65.0396L160.594 56.3373C161.422 81.0088 161.883 118.742 159.631 121.235C159.631 121.235 158.872 121.247 157.085 118.12C153.797 112.542 148.645 102.548 147.144 99.6176C147.096 99.5244 147.03 99.4415 146.951 99.3737C146.871 99.3059 146.778 99.2544 146.679 99.2223C146.579 99.1901 146.474 99.1779 146.37 99.1864C146.265 99.1948 146.164 99.2238 146.07 99.2715C145.977 99.3193 145.894 99.3849 145.826 99.4647C145.759 99.5445 145.707 99.6369 145.675 99.7366C145.643 99.8362 145.631 99.9413 145.639 100.046C145.648 100.15 145.676 100.252 145.724 100.345C147.23 103.285 152.401 113.312 155.72 118.943C156.535 120.369 158.017 122.83 159.631 122.83C160.122 122.83 160.572 122.61 160.885 122.232C164.032 118.965 162.685 71.1341 162.197 56.5144L168.455 67.086C168.984 67.9824 170.365 67.1817 169.828 66.2726H169.825Z" fill="#FB714C"/>
<path d="M98.8745 151.699C74.152 157.171 74.8665 157.25 74.152 157.25C74.0387 150.905 73.1423 136.184 73.1423 132.147C73.5203 132.021 73.7724 132.021 74.026 132.021C85.1272 130.256 97.8664 139.086 98.8761 151.701V151.699H98.8745Z" fill="#7A38FC"/>
<path d="M74.1521 157.25H74.4041L74.6561 158.259C86.6984 171.611 89.8884 174.121 90.1723 174.405C77.9163 186.953 54.4092 185.974 52.5813 161.917C54.1316 161.917 52.8014 161.902 74.1521 157.25Z" fill="#FF9500"/>
<path d="M74.1521 157.25C69.6255 158.294 54.6373 161.791 52.4553 161.791C51.9513 155.862 52.9083 149.908 55.4826 144.635C57.9549 139.563 65.5742 133.659 73.0164 132.146C73.0164 134.538 74.0197 149.865 74.1521 157.248V157.25Z" fill="black"/>
<path d="M97.4885 69.8292C96.6033 67.4351 87.7749 69.8292 87.6489 71.0925C87.2023 73.7705 93.4181 112.302 93.4515 112.467L103.669 110.197C103.02 107.273 99.0037 73.9332 97.4885 69.8308V69.8292Z" fill="#FB714C"/>
<path d="M76.044 65.1637C74.7839 64.406 65.8264 66.1733 65.8264 67.1813C65.8264 68.695 73.9003 115.494 74.6563 115.874L74.7839 116.504L84.9999 114.232L84.8739 113.728C83.4863 106.662 76.6756 65.6677 76.044 65.1605V65.1637Z" fill="#FB714C"/>
<path d="M57.6279 80.048C56.4891 79.8072 48.6704 81.9397 48.6704 82.6957C48.6704 83.3018 54.7218 116.62 56.1127 120.792L66.0782 118.521L65.9522 117.891C64.9426 111.836 58.2564 80.1804 57.6263 80.048H57.6279Z" fill="#FB714C"/>
<path d="M104.583 57.5907C104.275 55.7405 104.377 51.6956 102.386 50.7003C102.182 50.5967 101.838 50.426 99.3017 51.2713C96.6699 52.1486 96.4004 52.6893 96.2696 52.9493C95.7703 53.9462 97.2011 54.6272 97.6477 53.7388C98.0034 53.3688 100.061 52.6638 101.241 52.3544C95.0335 60.6404 92.7351 62.9452 92.0428 63.1206C91.0173 63.1701 85.2513 59.9976 81.0533 57.6801C72.6875 53.0609 69.8995 51.6749 68.7415 52.0417C67.0492 52.5713 48.6301 72.5614 48.6301 73.8693C48.6301 74.721 49.7977 74.9762 50.1534 74.2011C51.4102 72.2887 67.5022 54.2923 69.1594 53.5761C70.2456 53.4884 76.0354 56.7294 80.2845 59.0757C87.907 63.2849 91.1305 64.9676 92.3586 64.6821C94.531 64.218 100.602 55.8729 102.398 53.474C103.192 56.5045 102.487 58.519 103.795 58.519C103.911 58.5192 104.025 58.4941 104.13 58.4455C104.236 58.3969 104.329 58.326 104.404 58.2376C104.479 58.1492 104.534 58.0456 104.565 57.9339C104.596 57.8222 104.602 57.7051 104.583 57.5907Z" fill="#FF9500"/>
<path d="M42.2088 200.021L16.3491 49.7848C16.3312 49.6815 16.3339 49.5757 16.3569 49.4735C16.38 49.3712 16.4229 49.2745 16.4834 49.1889C16.5438 49.1033 16.6205 49.0304 16.7091 48.9745C16.7978 48.9185 16.8965 48.8806 16.9998 48.8628L50.5299 43.0682L48.8935 33.2542C48.8591 33.0473 48.9077 32.8352 49.0286 32.6639C49.1495 32.4925 49.333 32.3757 49.5394 32.3386L168.241 11.1459C168.347 11.127 168.455 11.1297 168.559 11.1537C168.664 11.1777 168.763 11.2225 168.849 11.2855C168.936 11.3485 169.009 11.4283 169.065 11.5203C169.12 11.6122 169.156 11.7143 169.171 11.8206L189.732 159.283C189.759 159.475 189.715 159.669 189.609 159.831C189.503 159.992 189.342 160.11 189.156 160.162L43.2073 200.654C43.0999 200.684 42.9875 200.691 42.8774 200.674C42.7672 200.658 42.6617 200.619 42.5676 200.559C42.4735 200.499 42.393 200.421 42.3312 200.328C42.2694 200.235 42.2277 200.131 42.2088 200.021ZM18.0557 50.2983L43.63 198.882L155.369 167.898L135.164 30.3864L18.0557 50.2983ZM136.625 29.348L156.929 167.464L188.057 158.811L167.707 12.8621L50.5953 33.771L52.101 42.7987L135.703 28.6781C135.808 28.6604 135.915 28.6638 136.018 28.688C136.121 28.7123 136.219 28.7569 136.305 28.8193C136.391 28.8817 136.463 28.9606 136.518 29.0514C136.573 29.1422 136.609 29.243 136.625 29.348Z" fill="black"/>
<path d="M45.745 123.096L33.7618 63.5546C33.7372 63.4505 33.7339 63.3424 33.7519 63.2369C33.77 63.1314 33.8091 63.0306 33.8669 62.9405C33.9247 62.8505 34.0001 62.7729 34.0885 62.7126C34.177 62.6523 34.2766 62.6104 34.3816 62.5894C34.4865 62.5684 34.5946 62.5688 34.6995 62.5904C34.8043 62.6121 34.9037 62.6547 34.9917 62.7156C35.0797 62.7765 35.1546 62.8545 35.2118 62.9449C35.2691 63.0353 35.3075 63.1364 35.3249 63.242L47.1486 121.983L108.542 108.285C108.748 108.238 108.965 108.276 109.144 108.389C109.322 108.502 109.449 108.681 109.496 108.888C109.542 109.094 109.505 109.311 109.392 109.489C109.279 109.668 109.099 109.795 108.893 109.842L46.702 123.718C46.5984 123.741 46.4911 123.744 46.3865 123.725C46.2819 123.706 46.1822 123.666 46.0931 123.609C46.0041 123.551 45.9276 123.475 45.8681 123.387C45.8085 123.299 45.7673 123.2 45.7466 123.096H45.745Z" fill="black"/>
<path d="M99.0242 151.653C98.9784 151.446 98.8526 151.267 98.6744 151.153C98.4961 151.039 98.28 151.001 98.0736 151.047C95.6603 151.576 79.554 155.284 74.9285 156.315C74.7643 149.453 74.0593 138.649 73.938 132.383C73.9362 132.279 73.9137 132.175 73.8718 132.079C73.83 131.983 73.7697 131.896 73.6943 131.824C73.6189 131.751 73.53 131.694 73.4325 131.656C73.335 131.617 73.2309 131.598 73.1262 131.6C73.0215 131.602 72.9181 131.625 72.8221 131.667C72.7261 131.708 72.6392 131.769 72.5665 131.844C72.4938 131.919 72.4366 132.008 72.3983 132.106C72.3599 132.203 72.3412 132.307 72.343 132.412C72.4595 138.649 73.1804 149.641 73.3367 156.608C63.9246 158.666 55.0373 160.755 52.9909 160.996C52.002 161.113 52.0865 162.586 53.0834 162.586C54.1553 162.586 64.9741 160.071 73.5361 158.199C75.4326 160.329 85.9962 171.943 89.534 174.89C89.6977 175.015 89.9035 175.073 90.1083 175.05C90.3132 175.027 90.5013 174.926 90.6333 174.767C90.7652 174.609 90.8309 174.406 90.8166 174.2C90.8023 173.994 90.709 173.802 90.5563 173.664C87.0585 170.75 76.5857 159.202 75.3656 157.851C79.9655 156.825 96.0065 153.13 98.4165 152.602C98.5188 152.579 98.6158 152.537 98.7017 152.477C98.7876 152.417 98.8609 152.341 98.9173 152.252C98.9738 152.164 99.0123 152.066 99.0306 151.962C99.0489 151.859 99.0468 151.753 99.0242 151.651V151.654V151.653Z" fill="black"/>
<path d="M102.534 132.693C102.322 132.693 102.119 132.609 101.97 132.46C101.82 132.31 101.736 132.107 101.736 131.896C101.736 130.843 103.031 130.602 138.314 122.916C138.521 122.871 138.737 122.91 138.915 123.024C139.093 123.138 139.218 123.318 139.263 123.525C139.308 123.732 139.269 123.948 139.155 124.126C139.041 124.304 138.861 124.429 138.654 124.474C102.492 132.35 102.691 132.692 102.532 132.692L102.534 132.693Z" fill="#FB714C"/>
<path d="M104.175 142.153C103.195 142.153 103.085 140.718 104.052 140.568C104.312 140.513 122.196 136.24 124.949 135.655C125.157 135.611 125.373 135.651 125.55 135.766C125.728 135.882 125.852 136.063 125.896 136.27C125.94 136.477 125.9 136.693 125.785 136.871C125.669 137.048 125.488 137.173 125.281 137.217C120.528 138.225 104.5 142.155 104.176 142.155V142.153H104.175Z" fill="#FB714C"/>
<path d="M132.556 135.467C131.577 135.467 131.469 134.029 132.437 133.881C134.022 133.637 137.501 132.769 137.536 132.76C137.741 132.709 137.958 132.741 138.139 132.85C138.321 132.959 138.451 133.135 138.502 133.34C138.554 133.546 138.521 133.763 138.412 133.944C138.303 134.125 138.127 134.256 137.922 134.307C137.142 134.503 133.113 135.467 132.555 135.467H132.556Z" fill="#FB714C"/>
<path d="M106.647 149.911C114.474 148.144 132.529 145.11 140.163 142.984C140.265 142.952 140.372 142.942 140.478 142.952C140.584 142.963 140.687 142.995 140.78 143.046C140.874 143.097 140.956 143.166 141.023 143.25C141.089 143.333 141.138 143.429 141.167 143.532C141.195 143.635 141.203 143.742 141.189 143.848C141.176 143.954 141.141 144.056 141.087 144.148C141.033 144.24 140.962 144.32 140.876 144.384C140.791 144.448 140.694 144.494 140.59 144.52C132.85 146.678 114.786 149.708 106.999 151.468C105.952 151.702 105.631 150.142 106.649 149.911H106.647Z" fill="#FB714C"/>
<path d="M108.686 161.436C108.478 161.396 108.295 161.275 108.176 161.1C108.057 160.925 108.013 160.71 108.053 160.502C108.093 160.295 108.214 160.111 108.389 159.993C108.564 159.874 108.779 159.83 108.987 159.87C110.26 160.001 122.631 156.9 127.765 156.082C127.87 156.061 127.978 156.062 128.083 156.085C128.188 156.107 128.287 156.15 128.374 156.211C128.462 156.273 128.537 156.351 128.593 156.442C128.65 156.532 128.688 156.634 128.705 156.739C128.722 156.845 128.717 156.953 128.691 157.057C128.665 157.161 128.619 157.259 128.555 157.344C128.49 157.43 128.409 157.501 128.317 157.555C128.224 157.609 128.122 157.643 128.015 157.656C122.072 158.602 110.222 161.75 108.686 161.435V161.436Z" fill="#FB714C"/>
<path d="M133.621 155.251C133.778 154.591 134.414 154.562 135.108 154.561C137.107 154.074 139.867 153.471 141.904 153.181C142.114 153.151 142.326 153.205 142.496 153.332C142.665 153.459 142.777 153.648 142.807 153.857C142.837 154.067 142.783 154.279 142.656 154.449C142.529 154.618 142.34 154.73 142.131 154.76C139.998 155.063 136.571 155.838 135.4 156.132C135.275 156.164 135.141 156.151 134.878 156.157C134.221 156.572 133.475 155.886 133.623 155.251H133.621Z" fill="#FB714C"/>
</svg>
