<svg width="26" height="25" viewBox="0 0 26 25" fill="none" xmlns="http://www.w3.org/2000/svg">
<path d="M21.5489 1.37793C20.7652 2.90373 19.9303 4.68259 19.3254 6.36621C18.9766 7.33722 18.6948 8.30346 18.5496 9.18848C18.4077 10.0533 18.3773 10.9454 18.6312 11.709C19.0443 12.9506 19.9913 14.8252 21.024 16.71C21.8781 18.2689 22.8208 19.8855 23.6346 21.252C22.192 20.462 20.4459 19.589 18.716 18.9336C17.6653 18.5355 16.5962 18.2078 15.5892 18.0322C14.594 17.8587 13.5848 17.8196 12.6918 18.0674C11.1523 18.4946 9.11518 19.4958 7.16499 20.5742C5.57086 21.4558 3.98116 22.4204 2.67825 23.2383C3.36579 21.7681 4.16995 19.9658 4.84408 18.207C5.25703 17.1296 5.62754 16.0547 5.89437 15.0752C6.15691 14.1114 6.33736 13.1745 6.33034 12.3955C6.3231 11.6013 6.07329 10.7021 5.73015 9.81348C5.38017 8.90722 4.9005 7.93066 4.36732 6.95898C3.48416 5.34952 2.42477 3.7064 1.49597 2.33984C2.9132 3.01052 4.59917 3.76297 6.26616 4.3877C8.26206 5.13568 10.3578 5.75496 11.9427 5.76758C13.506 5.77997 15.3952 5.01776 17.1393 4.10156C18.6742 3.29518 20.2226 2.29778 21.5489 1.37793Z" stroke="#FB714C" stroke-width="2"/>
</svg>
