<svg width="88" height="52" viewBox="0 0 88 52" fill="none" xmlns="http://www.w3.org/2000/svg">
<path d="M85.9725 46.409C85.9725 46.409 83.5944 34.5664 74.3959 29.1579C65.0463 23.6606 48.8812 24.5758 46.0542 35.8541C44.5335 41.9212 46.0109 46.9129 51.4914 48.8758C56.9536 50.8322 61.9151 48.1342 65.0888 42.7822C71.8836 31.3235 60.6645 16.5261 49.0003 12.2544C37.3127 7.97407 18.8546 12.0029 16.7262 25.1796C15.7307 31.3425 17.6133 36.7393 23.1437 38.5581C28.5648 40.3409 33.6991 37.7774 36.7411 32.4645C43.2313 21.1292 33.2768 5.23484 21.4696 2.23399C13.7602 0.274611 7.35608 2.21881 1.49993 8.29652" stroke="#FB714C" stroke-width="3" stroke-linecap="round"/>
</svg>
