<svg width="30" height="30" viewBox="0 0 30 30" fill="none" xmlns="http://www.w3.org/2000/svg">
<path d="M9.23726 1.47674C10.2889 2.83183 11.5483 4.34027 12.8185 5.59999C13.5511 6.32652 14.3078 6.99021 15.0485 7.49588C15.7723 7.99001 16.568 8.39458 17.3673 8.4871C18.6672 8.63746 20.7664 8.57139 22.911 8.43202C24.6848 8.31674 26.5483 8.14562 28.1307 7.98552C26.8051 8.95914 25.276 10.1727 23.9509 11.4635C23.146 12.2475 22.3972 13.078 21.8125 13.9164C21.2347 14.745 20.7727 15.6432 20.6199 16.5573C20.3564 18.133 20.4029 20.4024 20.5561 22.6256C20.6814 24.443 20.8838 26.2914 21.0744 27.8179C20.0326 26.5735 18.739 25.083 17.4299 23.7287C16.6279 22.8991 15.8102 22.109 15.0353 21.4532C14.2728 20.808 13.4999 20.2485 12.7909 19.9256C12.0681 19.5966 11.1475 19.4429 10.1972 19.3784C9.22793 19.3126 8.14014 19.3346 7.03418 19.4072C5.20227 19.5274 3.26537 19.7931 1.63433 20.0573C2.84112 19.0563 4.23559 17.8463 5.50628 16.5995C7.0277 15.1068 8.47465 13.4691 9.15589 12.038C9.82781 10.6264 9.93543 8.59209 9.84213 6.62425C9.76 4.89231 9.51043 3.06747 9.23726 1.47674Z" stroke="#FB714C" stroke-width="2"/>
</svg>
