<svg width="27" height="27" viewBox="0 0 27 27" fill="none" xmlns="http://www.w3.org/2000/svg">
<path d="M24.7216 12.428C23.5144 12.853 22.2129 13.3626 21.0489 13.9284C20.2625 14.3107 19.5142 14.7307 18.8926 15.1825C18.2874 15.6224 17.7181 16.1519 17.3941 16.7803C16.8825 17.7725 16.3027 19.4502 15.7691 21.1712C15.3896 22.3955 15.0217 23.6823 14.7038 24.8361C14.3668 23.677 13.9409 22.394 13.4257 21.2099C13.0558 20.3601 12.6302 19.5354 12.1448 18.8357C11.6662 18.1458 11.085 17.512 10.3816 17.124C9.21548 16.4808 7.4219 15.9028 5.65324 15.4261C4.42885 15.0962 3.17079 14.8042 2.06134 14.5641C3.2269 14.1137 4.55818 13.5727 5.81353 12.9939C6.69872 12.5858 7.55994 12.1538 8.30485 11.7185C9.03637 11.2909 9.71184 10.8279 10.1854 10.3464C10.6715 9.85217 11.0734 9.15469 11.4104 8.42006C11.7547 7.66939 12.0659 6.80344 12.3417 5.91193C12.737 4.63404 13.0708 3.26579 13.3379 2.04275C13.7157 3.11714 14.163 4.30456 14.6582 5.43087C15.3599 7.0269 16.2086 8.63567 17.144 9.58579C18.0791 10.5355 19.6714 11.1782 21.225 11.6336C22.3647 11.9676 23.5866 12.227 24.7216 12.428Z" fill="#FB714C" stroke="#FB714C" stroke-width="2"/>
</svg>
